<svg width="107" height="93" viewBox="0 0 107 93" fill="none" xmlns="http://www.w3.org/2000/svg">
<path d="M21.3225 89.2225C21.3225 91.2275 23.1098 92.8529 25.3145 92.8529H81.2016L81.7434 92.82C83.6915 92.5794 85.1935 91.0605 85.1935 89.2225C85.1935 87.2175 83.4062 85.5921 81.2016 85.5921L71.8817 85.5901V73.4989L94.5016 73.4999L95.3219 73.4747C101.554 73.0918 106.477 68.3733 106.477 62.6091V49.2894H79.8709C76.8312 49.2894 73.9831 47.9408 72.24 45.6764L71.2186 44.3491L61.277 59.6496C59.4711 62.429 56.0849 64.0332 52.5453 63.7859C49.0058 63.539 45.9283 61.4837 44.6099 58.4859L36.7959 40.7211L35.0351 44.2881C33.5327 47.3313 30.2059 49.2894 26.5376 49.2894H0.0322266V62.6091L0.0598502 63.3546C0.481239 69.0219 5.66958 73.4999 12.008 73.4999L34.6237 73.4989V85.5901L25.3145 85.5921L24.7728 85.6255C22.8243 85.8656 21.3225 87.3845 21.3225 89.2225ZM42.6022 73.4989H63.8926L63.8979 85.5921H42.6075L42.6022 73.4989ZM106.477 11.7733V32.348H84.7209L78.1874 23.8597C76.3713 21.5005 73.362 20.1419 70.1977 20.2527C67.0339 20.3636 64.148 21.9288 62.5374 24.408L54.8729 36.2034L45.9384 15.8904C44.5503 12.7338 41.221 10.6379 37.4833 10.5674C33.7457 10.4969 30.3238 12.4655 28.7928 15.5672L20.509 32.348H0.0322266V11.7733C0.0322266 6.00901 4.95647 1.29062 11.1881 0.907446L12.008 0.882324H94.5016C100.84 0.882324 106.029 5.36052 106.45 11.0276L106.477 11.7733ZM40.9967 17.6881C40.4017 16.3353 38.9749 15.437 37.3731 15.4068C35.7712 15.3766 34.3047 16.2203 33.6485 17.5496L23.9539 37.1884H4.02416C1.8195 37.1884 0.0322266 38.8139 0.0322266 40.8189C0.0322266 42.8238 1.8195 44.4493 4.02416 44.4493H26.5376C28.1097 44.4493 29.5355 43.6099 30.1794 42.3054L37.0785 28.3297L49.5514 56.6886C50.1166 57.9733 51.4356 58.8538 52.9525 58.9598C54.4695 59.0658 55.9209 58.378 56.6948 57.1872L70.8401 35.4168L76.6007 42.9008C77.3475 43.8713 78.5685 44.4493 79.8709 44.4493H102.492C104.697 44.4493 106.484 42.8238 106.484 40.8189C106.484 38.8139 104.697 37.1884 102.492 37.1884H81.9494L73.8266 26.6354C73.0485 25.6244 71.7588 25.0421 70.4026 25.0896C69.0469 25.1371 67.81 25.8079 67.1196 26.8704L53.95 47.1387L40.9967 17.6881Z" fill="#1865CF"/>
</svg>
